<svg width="200" height="46" viewBox="0 0 200 46" fill="none" xmlns="http://www.w3.org/2000/svg">
<g clip-path="url(#clip0_561_1175)">
<path d="M16.898 26.478H7.446L5.882 31H0.884L9.418 7.234H14.96L23.494 31H18.462L16.898 26.478ZM15.606 22.67L12.172 12.742L8.738 22.67H15.606ZM21.5499 21.582C21.5499 19.6327 21.9466 17.9327 22.7399 16.482C23.5332 15.0087 24.6326 13.8753 26.0379 13.082C27.4432 12.266 29.0526 11.858 30.8659 11.858C33.2006 11.858 35.1272 12.4473 36.6459 13.626C38.1872 14.782 39.2186 16.414 39.7399 18.522H34.6059C34.3339 17.706 33.8692 17.0713 33.2119 16.618C32.5772 16.142 31.7839 15.904 30.8319 15.904C29.4719 15.904 28.3952 16.4027 27.6019 17.4C26.8086 18.3747 26.4119 19.7687 26.4119 21.582C26.4119 23.3727 26.8086 24.7667 27.6019 25.764C28.3952 26.7387 29.4719 27.226 30.8319 27.226C32.7586 27.226 34.0166 26.3647 34.6059 24.642H39.7399C39.2186 26.682 38.1872 28.3027 36.6459 29.504C35.1046 30.7053 33.1779 31.306 30.8659 31.306C29.0526 31.306 27.4432 30.9093 26.0379 30.116C24.6326 29.3 23.5332 28.1667 22.7399 26.716C21.9466 25.2427 21.5499 23.5313 21.5499 21.582ZM38.093 21.582C38.093 19.6327 38.4897 17.9327 39.283 16.482C40.0763 15.0087 41.1757 13.8753 42.581 13.082C43.9863 12.266 45.5957 11.858 47.409 11.858C49.7437 11.858 51.6704 12.4473 53.189 13.626C54.7303 14.782 55.7617 16.414 56.283 18.522H51.149C50.877 17.706 50.4124 17.0713 49.755 16.618C49.1203 16.142 48.327 15.904 47.375 15.904C46.015 15.904 44.9383 16.4027 44.145 17.4C43.3517 18.3747 42.955 19.7687 42.955 21.582C42.955 23.3727 43.3517 24.7667 44.145 25.764C44.9383 26.7387 46.015 27.226 47.375 27.226C49.3017 27.226 50.5597 26.3647 51.149 24.642H56.283C55.7617 26.682 54.7303 28.3027 53.189 29.504C51.6477 30.7053 49.721 31.306 47.409 31.306C45.5957 31.306 43.9863 30.9093 42.581 30.116C41.1757 29.3 40.0763 28.1667 39.283 26.716C38.4897 25.2427 38.093 23.5313 38.093 21.582ZM73.3701 21.174C73.3701 21.854 73.3248 22.466 73.2341 23.01H59.4641C59.5775 24.37 60.0535 25.4353 60.8921 26.206C61.7308 26.9767 62.7621 27.362 63.9861 27.362C65.7541 27.362 67.0121 26.6027 67.7601 25.084H72.8941C72.3501 26.8973 71.3075 28.3933 69.7661 29.572C68.2248 30.728 66.3321 31.306 64.0881 31.306C62.2748 31.306 60.6428 30.9093 59.1921 30.116C57.7641 29.3 56.6421 28.1553 55.8261 26.682C55.0328 25.2087 54.6361 23.5087 54.6361 21.582C54.6361 19.6327 55.0328 17.9213 55.8261 16.448C56.6195 14.9747 57.7301 13.8413 59.1581 13.048C60.5861 12.2547 62.2295 11.858 64.0881 11.858C65.8788 11.858 67.4768 12.2433 68.8821 13.014C70.3101 13.7847 71.4095 14.884 72.1801 16.312C72.9735 17.7173 73.3701 19.338 73.3701 21.174ZM68.4401 19.814C68.4175 18.59 67.9755 17.6153 67.1141 16.89C66.2528 16.142 65.1988 15.768 63.9521 15.768C62.7735 15.768 61.7761 16.1307 60.9601 16.856C60.1668 17.5587 59.6795 18.5447 59.4981 19.814H68.4401ZM80.1425 31.306C78.6012 31.306 77.2185 31.034 75.9945 30.49C74.7705 29.9233 73.7958 29.164 73.0705 28.212C72.3678 27.26 71.9825 26.206 71.9145 25.05H76.7085C76.7992 25.7753 77.1505 26.376 77.7625 26.852C78.3972 27.328 79.1792 27.566 80.1085 27.566C81.0152 27.566 81.7179 27.3847 82.2165 27.022C82.7378 26.6593 82.9985 26.1947 82.9985 25.628C82.9985 25.016 82.6812 24.5627 82.0465 24.268C81.4345 23.9507 80.4485 23.6107 79.0885 23.248C77.6832 22.908 76.5272 22.5567 75.6205 22.194C74.7365 21.8313 73.9658 21.276 73.3085 20.528C72.6738 19.78 72.3565 18.7713 72.3565 17.502C72.3565 16.4593 72.6512 15.5073 73.2405 14.646C73.8525 13.7847 74.7138 13.1047 75.8245 12.606C76.9578 12.1073 78.2839 11.858 79.8025 11.858C82.0465 11.858 83.8372 12.4247 85.1745 13.558C86.5119 14.6687 87.2485 16.176 87.3845 18.08H82.8285C82.7605 17.332 82.4432 16.7427 81.8765 16.312C81.3325 15.8587 80.5959 15.632 79.6665 15.632C78.8052 15.632 78.1365 15.7907 77.6605 16.108C77.2072 16.4253 76.9805 16.8673 76.9805 17.434C76.9805 18.0687 77.2978 18.556 77.9325 18.896C78.5672 19.2133 79.5532 19.542 80.8905 19.882C82.2505 20.222 83.3725 20.5733 84.2565 20.936C85.1405 21.2987 85.8999 21.8653 86.5345 22.636C87.1919 23.384 87.5319 24.3813 87.5545 25.628C87.5545 26.716 87.2485 27.6907 86.6365 28.552C86.0472 29.4133 85.1859 30.0933 84.0525 30.592C82.9418 31.068 81.6385 31.306 80.1425 31.306ZM94.7599 31.306C93.2185 31.306 91.8359 31.034 90.6119 30.49C89.3879 29.9233 88.4132 29.164 87.6879 28.212C86.9852 27.26 86.5999 26.206 86.5319 25.05H91.3259C91.4165 25.7753 91.7679 26.376 92.3799 26.852C93.0145 27.328 93.7965 27.566 94.7259 27.566C95.6325 27.566 96.3352 27.3847 96.8339 27.022C97.3552 26.6593 97.6159 26.1947 97.6159 25.628C97.6159 25.016 97.2985 24.5627 96.6639 24.268C96.0519 23.9507 95.0659 23.6107 93.7059 23.248C92.3005 22.908 91.1445 22.5567 90.2379 22.194C89.3539 21.8313 88.5832 21.276 87.9259 20.528C87.2912 19.78 86.9739 18.7713 86.9739 17.502C86.9739 16.4593 87.2685 15.5073 87.8579 14.646C88.4699 13.7847 89.3312 13.1047 90.4419 12.606C91.5752 12.1073 92.9012 11.858 94.4199 11.858C96.6639 11.858 98.4545 12.4247 99.7919 13.558C101.129 14.6687 101.866 16.176 102.002 18.08H97.4459C97.3779 17.332 97.0605 16.7427 96.4939 16.312C95.9499 15.8587 95.2132 15.632 94.2839 15.632C93.4225 15.632 92.7539 15.7907 92.2779 16.108C91.8245 16.4253 91.5979 16.8673 91.5979 17.434C91.5979 18.0687 91.9152 18.556 92.5499 18.896C93.1845 19.2133 94.1705 19.542 95.5079 19.882C96.8679 20.222 97.9899 20.5733 98.8739 20.936C99.7579 21.2987 100.517 21.8653 101.152 22.636C101.809 23.384 102.149 24.3813 102.172 25.628C102.172 26.716 101.866 27.6907 101.254 28.552C100.665 29.4133 99.8032 30.0933 98.6699 30.592C97.5592 31.068 96.2559 31.306 94.7599 31.306ZM110.533 31.306C108.72 31.306 107.088 30.9093 105.637 30.116C104.187 29.3 103.042 28.1553 102.203 26.682C101.387 25.2087 100.979 23.5087 100.979 21.582C100.979 19.6553 101.399 17.9553 102.237 16.482C103.099 15.0087 104.266 13.8753 105.739 13.082C107.213 12.266 108.856 11.858 110.669 11.858C112.483 11.858 114.126 12.266 115.599 13.082C117.073 13.8753 118.229 15.0087 119.067 16.482C119.929 17.9553 120.359 19.6553 120.359 21.582C120.359 23.5087 119.917 25.2087 119.033 26.682C118.172 28.1553 116.993 29.3 115.497 30.116C114.024 30.9093 112.369 31.306 110.533 31.306ZM110.533 27.158C111.395 27.158 112.199 26.954 112.947 26.546C113.718 26.1153 114.33 25.4807 114.783 24.642C115.237 23.8033 115.463 22.7833 115.463 21.582C115.463 19.7913 114.987 18.42 114.035 17.468C113.106 16.4933 111.961 16.006 110.601 16.006C109.241 16.006 108.097 16.4933 107.167 17.468C106.261 18.42 105.807 19.7913 105.807 21.582C105.807 23.3727 106.249 24.7553 107.133 25.73C108.04 26.682 109.173 27.158 110.533 27.158ZM124.701 15.088C125.313 14.0907 126.106 13.3087 127.081 12.742C128.078 12.1753 129.212 11.892 130.481 11.892V16.89H129.223C127.727 16.89 126.594 17.2413 125.823 17.944C125.075 18.6467 124.701 19.8707 124.701 21.616V31H119.941V12.164H124.701V15.088ZM132.191 9.92C131.352 9.92 130.65 9.65933 130.083 9.138C129.539 8.594 129.267 7.92533 129.267 7.132C129.267 6.33867 129.539 5.68133 130.083 5.16C130.65 4.616 131.352 4.344 132.191 4.344C133.03 4.344 133.721 4.616 134.265 5.16C134.832 5.68133 135.115 6.33867 135.115 7.132C135.115 7.92533 134.832 8.594 134.265 9.138C133.721 9.65933 133.03 9.92 132.191 9.92ZM134.537 12.164V31H129.777V12.164H134.537ZM152.84 21.174C152.84 21.854 152.794 22.466 152.704 23.01H138.934C139.047 24.37 139.523 25.4353 140.362 26.206C141.2 26.9767 142.232 27.362 143.456 27.362C145.224 27.362 146.482 26.6027 147.23 25.084H152.364C151.82 26.8973 150.777 28.3933 149.236 29.572C147.694 30.728 145.802 31.306 143.558 31.306C141.744 31.306 140.112 30.9093 138.662 30.116C137.234 29.3 136.112 28.1553 135.296 26.682C134.502 25.2087 134.106 23.5087 134.106 21.582C134.106 19.6327 134.502 17.9213 135.296 16.448C136.089 14.9747 137.2 13.8413 138.628 13.048C140.056 12.2547 141.699 11.858 143.558 11.858C145.348 11.858 146.946 12.2433 148.352 13.014C149.78 13.7847 150.879 14.884 151.65 16.312C152.443 17.7173 152.84 19.338 152.84 21.174ZM147.91 19.814C147.887 18.59 147.445 17.6153 146.584 16.89C145.722 16.142 144.668 15.768 143.422 15.768C142.243 15.768 141.246 16.1307 140.43 16.856C139.636 17.5587 139.149 18.5447 138.968 19.814H147.91ZM159.612 31.306C158.071 31.306 156.688 31.034 155.464 30.49C154.24 29.9233 153.266 29.164 152.54 28.212C151.838 27.26 151.452 26.206 151.384 25.05H156.178C156.269 25.7753 156.62 26.376 157.232 26.852C157.867 27.328 158.649 27.566 159.578 27.566C160.485 27.566 161.188 27.3847 161.686 27.022C162.208 26.6593 162.468 26.1947 162.468 25.628C162.468 25.016 162.151 24.5627 161.516 24.268C160.904 23.9507 159.918 23.6107 158.558 23.248C157.153 22.908 155.997 22.5567 155.09 22.194C154.206 21.8313 153.436 21.276 152.778 20.528C152.144 19.78 151.826 18.7713 151.826 17.502C151.826 16.4593 152.121 15.5073 152.71 14.646C153.322 13.7847 154.184 13.1047 155.294 12.606C156.428 12.1073 157.754 11.858 159.272 11.858C161.516 11.858 163.307 12.4247 164.644 13.558C165.982 14.6687 166.718 16.176 166.854 18.08H162.298C162.23 17.332 161.913 16.7427 161.346 16.312C160.802 15.8587 160.066 15.632 159.136 15.632C158.275 15.632 157.606 15.7907 157.13 16.108C156.677 16.4253 156.45 16.8673 156.45 17.434C156.45 18.0687 156.768 18.556 157.402 18.896C158.037 19.2133 159.023 19.542 160.36 19.882C161.72 20.222 162.842 20.5733 163.726 20.936C164.61 21.2987 165.37 21.8653 166.004 22.636C166.662 23.384 167.002 24.3813 167.024 25.628C167.024 26.716 166.718 27.6907 166.106 28.552C165.517 29.4133 164.656 30.0933 163.522 30.592C162.412 31.068 161.108 31.306 159.612 31.306ZM170.091 10.6V6.214H178.285V31H173.389V10.6H170.091ZM179.077 18.284C179.077 14.3627 179.78 11.2913 181.185 9.07C182.613 6.84867 184.971 5.738 188.257 5.738C191.544 5.738 193.89 6.84867 195.295 9.07C196.723 11.2913 197.437 14.3627 197.437 18.284C197.437 22.228 196.723 25.322 195.295 27.566C193.89 29.81 191.544 30.932 188.257 30.932C184.971 30.932 182.613 29.81 181.185 27.566C179.78 25.322 179.077 22.228 179.077 18.284ZM192.745 18.284C192.745 16.6067 192.632 15.2013 192.405 14.068C192.201 12.912 191.771 11.9713 191.113 11.246C190.479 10.5207 189.527 10.158 188.257 10.158C186.988 10.158 186.025 10.5207 185.367 11.246C184.733 11.9713 184.302 12.912 184.075 14.068C183.871 15.2013 183.769 16.6067 183.769 18.284C183.769 20.0067 183.871 21.4573 184.075 22.636C184.279 23.792 184.71 24.7327 185.367 25.458C186.025 26.1607 186.988 26.512 188.257 26.512C189.527 26.512 190.49 26.1607 191.147 25.458C191.805 24.7327 192.235 23.792 192.439 22.636C192.643 21.4573 192.745 20.0067 192.745 18.284Z" fill="#111827"/>
<path d="M130.078 41.87C130.078 42.1127 130.064 42.3693 130.036 42.64H123.904C123.951 43.396 124.207 43.9887 124.674 44.418C125.15 44.838 125.724 45.048 126.396 45.048C126.947 45.048 127.404 44.922 127.768 44.67C128.141 44.4087 128.403 44.0633 128.552 43.634H129.924C129.719 44.3713 129.308 44.9733 128.692 45.44C128.076 45.8973 127.311 46.126 126.396 46.126C125.668 46.126 125.015 45.9627 124.436 45.636C123.867 45.3093 123.419 44.8473 123.092 44.25C122.765 43.6433 122.602 42.9433 122.602 42.15C122.602 41.3567 122.761 40.6613 123.078 40.064C123.395 39.4667 123.839 39.0093 124.408 38.692C124.987 38.3653 125.649 38.202 126.396 38.202C127.124 38.202 127.768 38.3607 128.328 38.678C128.888 38.9953 129.317 39.434 129.616 39.994C129.924 40.5447 130.078 41.17 130.078 41.87ZM128.762 41.604C128.762 41.1187 128.655 40.7033 128.44 40.358C128.225 40.0033 127.931 39.7373 127.558 39.56C127.194 39.3733 126.788 39.28 126.34 39.28C125.696 39.28 125.145 39.4853 124.688 39.896C124.24 40.3067 123.983 40.876 123.918 41.604H128.762ZM129.884 41.114C129.884 40.162 130.098 39.308 130.528 38.552C130.957 37.7867 131.54 37.1893 132.278 36.76C133.024 36.3307 133.85 36.116 134.756 36.116C135.82 36.116 136.748 36.3727 137.542 36.886C138.335 37.3993 138.914 38.1273 139.278 39.07H137.752C137.481 38.482 137.089 38.0293 136.576 37.712C136.072 37.3947 135.465 37.236 134.756 37.236C134.074 37.236 133.463 37.3947 132.922 37.712C132.38 38.0293 131.956 38.482 131.648 39.07C131.34 39.6487 131.186 40.33 131.186 41.114C131.186 41.8887 131.34 42.57 131.648 43.158C131.956 43.7367 132.38 44.1847 132.922 44.502C133.463 44.8193 134.074 44.978 134.756 44.978C135.465 44.978 136.072 44.824 136.576 44.516C137.089 44.1987 137.481 43.746 137.752 43.158H139.278C138.914 44.0913 138.335 44.8147 137.542 45.328C136.748 45.832 135.82 46.084 134.756 46.084C133.85 46.084 133.024 45.874 132.278 45.454C131.54 45.0247 130.957 44.432 130.528 43.676C130.098 42.92 129.884 42.066 129.884 41.114ZM143.12 46.126C142.401 46.126 141.748 45.9627 141.16 45.636C140.581 45.3093 140.124 44.8473 139.788 44.25C139.461 43.6433 139.298 42.9433 139.298 42.15C139.298 41.366 139.466 40.6753 139.802 40.078C140.147 39.4713 140.614 39.0093 141.202 38.692C141.79 38.3653 142.448 38.202 143.176 38.202C143.904 38.202 144.562 38.3653 145.15 38.692C145.738 39.0093 146.2 39.4667 146.536 40.064C146.881 40.6613 147.054 41.3567 147.054 42.15C147.054 42.9433 146.877 43.6433 146.522 44.25C146.177 44.8473 145.705 45.3093 145.108 45.636C144.511 45.9627 143.848 46.126 143.12 46.126ZM143.12 45.006C143.577 45.006 144.007 44.8987 144.408 44.684C144.809 44.4693 145.131 44.1473 145.374 43.718C145.626 43.2887 145.752 42.766 145.752 42.15C145.752 41.534 145.631 41.0113 145.388 40.582C145.145 40.1527 144.828 39.8353 144.436 39.63C144.044 39.4153 143.619 39.308 143.162 39.308C142.695 39.308 142.266 39.4153 141.874 39.63C141.491 39.8353 141.183 40.1527 140.95 40.582C140.717 41.0113 140.6 41.534 140.6 42.15C140.6 42.7753 140.712 43.3027 140.936 43.732C141.169 44.1613 141.477 44.4833 141.86 44.698C142.243 44.9033 142.663 45.006 143.12 45.006ZM156.555 38.188C157.153 38.188 157.685 38.314 158.151 38.566C158.618 38.8087 158.987 39.1773 159.257 39.672C159.528 40.1667 159.663 40.7687 159.663 41.478V46H158.403V41.66C158.403 40.8947 158.212 40.3113 157.829 39.91C157.456 39.4993 156.947 39.294 156.303 39.294C155.641 39.294 155.113 39.5087 154.721 39.938C154.329 40.358 154.133 40.9693 154.133 41.772V46H152.873V41.66C152.873 40.8947 152.682 40.3113 152.299 39.91C151.926 39.4993 151.417 39.294 150.773 39.294C150.111 39.294 149.583 39.5087 149.191 39.938C148.799 40.358 148.603 40.9693 148.603 41.772V46H147.329V38.328H148.603V39.434C148.855 39.0327 149.191 38.7247 149.611 38.51C150.041 38.2953 150.512 38.188 151.025 38.188C151.669 38.188 152.239 38.3327 152.733 38.622C153.228 38.9113 153.597 39.336 153.839 39.896C154.054 39.3547 154.409 38.9347 154.903 38.636C155.398 38.3373 155.949 38.188 156.555 38.188ZM169.579 38.188C170.176 38.188 170.708 38.314 171.175 38.566C171.642 38.8087 172.01 39.1773 172.281 39.672C172.552 40.1667 172.687 40.7687 172.687 41.478V46H171.427V41.66C171.427 40.8947 171.236 40.3113 170.853 39.91C170.48 39.4993 169.971 39.294 169.327 39.294C168.664 39.294 168.137 39.5087 167.745 39.938C167.353 40.358 167.157 40.9693 167.157 41.772V46H165.897V41.66C165.897 40.8947 165.706 40.3113 165.323 39.91C164.95 39.4993 164.441 39.294 163.797 39.294C163.134 39.294 162.607 39.5087 162.215 39.938C161.823 40.358 161.627 40.9693 161.627 41.772V46H160.353V38.328H161.627V39.434C161.879 39.0327 162.215 38.7247 162.635 38.51C163.064 38.2953 163.536 38.188 164.049 38.188C164.693 38.188 165.262 38.3327 165.757 38.622C166.252 38.9113 166.62 39.336 166.863 39.896C167.078 39.3547 167.432 38.9347 167.927 38.636C168.422 38.3373 168.972 38.188 169.579 38.188ZM180.377 41.87C180.377 42.1127 180.363 42.3693 180.335 42.64H174.203C174.249 43.396 174.506 43.9887 174.973 44.418C175.449 44.838 176.023 45.048 176.695 45.048C177.245 45.048 177.703 44.922 178.067 44.67C178.44 44.4087 178.701 44.0633 178.851 43.634H180.223C180.017 44.3713 179.607 44.9733 178.991 45.44C178.375 45.8973 177.609 46.126 176.695 46.126C175.967 46.126 175.313 45.9627 174.735 45.636C174.165 45.3093 173.717 44.8473 173.391 44.25C173.064 43.6433 172.901 42.9433 172.901 42.15C172.901 41.3567 173.059 40.6613 173.377 40.064C173.694 39.4667 174.137 39.0093 174.707 38.692C175.285 38.3653 175.948 38.202 176.695 38.202C177.423 38.202 178.067 38.3607 178.627 38.678C179.187 38.9953 179.616 39.434 179.915 39.994C180.223 40.5447 180.377 41.17 180.377 41.87ZM179.061 41.604C179.061 41.1187 178.953 40.7033 178.739 40.358C178.524 40.0033 178.23 39.7373 177.857 39.56C177.493 39.3733 177.087 39.28 176.639 39.28C175.995 39.28 175.444 39.4853 174.987 39.896C174.539 40.3067 174.282 40.876 174.217 41.604H179.061ZM181.932 39.574C182.156 39.1353 182.474 38.7947 182.884 38.552C183.304 38.3093 183.813 38.188 184.41 38.188V39.504H184.074C182.646 39.504 181.932 40.2787 181.932 41.828V46H180.658V38.328H181.932V39.574ZM184.005 42.15C184.005 41.3567 184.164 40.666 184.481 40.078C184.798 39.4807 185.237 39.0187 185.797 38.692C186.366 38.3653 187.015 38.202 187.743 38.202C188.686 38.202 189.46 38.4307 190.067 38.888C190.683 39.3453 191.089 39.98 191.285 40.792H189.913C189.782 40.3253 189.526 39.9567 189.143 39.686C188.77 39.4153 188.303 39.28 187.743 39.28C187.015 39.28 186.427 39.532 185.979 40.036C185.531 40.5307 185.307 41.2353 185.307 42.15C185.307 43.074 185.531 43.788 185.979 44.292C186.427 44.796 187.015 45.048 187.743 45.048C188.303 45.048 188.77 44.9173 189.143 44.656C189.516 44.3947 189.773 44.0213 189.913 43.536H191.285C191.08 44.32 190.669 44.95 190.053 45.426C189.437 45.8927 188.667 46.126 187.743 46.126C187.015 46.126 186.366 45.9627 185.797 45.636C185.237 45.3093 184.798 44.8473 184.481 44.25C184.164 43.6527 184.005 42.9527 184.005 42.15ZM198.585 41.87C198.585 42.1127 198.571 42.3693 198.543 42.64H192.411C192.458 43.396 192.714 43.9887 193.181 44.418C193.657 44.838 194.231 45.048 194.903 45.048C195.454 45.048 195.911 44.922 196.275 44.67C196.648 44.4087 196.91 44.0633 197.059 43.634H198.431C198.226 44.3713 197.815 44.9733 197.199 45.44C196.583 45.8973 195.818 46.126 194.903 46.126C194.175 46.126 193.522 45.9627 192.943 45.636C192.374 45.3093 191.926 44.8473 191.599 44.25C191.272 43.6433 191.109 42.9433 191.109 42.15C191.109 41.3567 191.268 40.6613 191.585 40.064C191.902 39.4667 192.346 39.0093 192.915 38.692C193.494 38.3653 194.156 38.202 194.903 38.202C195.631 38.202 196.275 38.3607 196.835 38.678C197.395 38.9953 197.824 39.434 198.123 39.994C198.431 40.5447 198.585 41.17 198.585 41.87ZM197.269 41.604C197.269 41.1187 197.162 40.7033 196.947 40.358C196.732 40.0033 196.438 39.7373 196.065 39.56C195.701 39.3733 195.295 39.28 194.847 39.28C194.203 39.28 193.652 39.4853 193.195 39.896C192.747 40.3067 192.49 40.876 192.425 41.604H197.269Z" fill="#111827"/>
</g>
<defs>
<clipPath id="clip0_561_1175">
<rect width="200" height="46" fill="white"/>
</clipPath>
</defs>
</svg>
